<?xml version="1.0" standalone="no"?>
<!DOCTYPE svg PUBLIC "-//W3C//DTD SVG 20010904//EN"
 "http://www.w3.org/TR/2001/REC-SVG-20010904/DTD/svg10.dtd">
<svg version="1.0" xmlns="http://www.w3.org/2000/svg"
 width="70.000000pt" height="40.000000pt" viewBox="0 0 70.000000 40.000000"
 preserveAspectRatio="xMidYMid meet">

<g transform="translate(0.000000,40.000000) scale(0.100000,-0.100000)"
fill="#000000" stroke="none">
<path d="M0 200 l0 -200 350 0 350 0 0 200 0 200 -350 0 -350 0 0 -200z m662
43 c23 -21 23 -29 -1 -36 -21 -5 -81 26 -81 43 0 16 62 11 82 -7z m-615 -39
c-3 -3 -12 -4 -19 -1 -8 3 -5 6 6 6 11 1 17 -2 13 -5z m103 -16 c0 -19 -2 -20
-10 -8 -9 13 -10 13 -10 0 0 -12 -2 -13 -9 -1 -7 11 -9 11 -14 0 -4 -9 -6 -8
-6 5 -1 12 4 16 14 13 8 -4 17 -2 20 3 10 16 15 11 15 -12z m17 -10 c-3 -7 -5
-2 -5 12 0 14 2 19 5 13 2 -7 2 -19 0 -25z m120 0 c-3 -7 -5 -2 -5 12 0 14 2
19 5 13 2 -7 2 -19 0 -25z m62 10 c0 -13 -3 -17 -6 -9 -5 11 -7 11 -14 0 -7
-11 -9 -11 -9 -1 0 7 -4 10 -10 7 -5 -3 -10 -1 -10 5 0 7 7 10 15 7 8 -4 17
-2 20 3 10 16 15 11 14 -12z m198 -10 c-3 -7 -5 -2 -5 12 0 14 2 19 5 13 2 -7
2 -19 0 -25z m-462 4 c0 -18 -20 -15 -23 4 -3 10 1 15 10 12 7 -3 13 -10 13
-16z m164 1 c0 -13 -2 -14 -6 -4 -5 11 -7 11 -14 0 -7 -12 -9 -11 -9 1 0 13
-1 13 -10 0 -9 -13 -10 -13 -10 0 0 13 -1 13 -10 0 -8 -13 -10 -12 -10 3 0 13
8 17 35 17 27 0 35 -4 34 -17z m139 0 c-4 -22 -22 -20 -26 1 -2 10 3 16 13 16
10 0 15 -7 13 -17z m82 6 c0 -5 -4 -7 -10 -4 -5 3 -10 0 -10 -7 0 -9 -3 -9
-10 2 -9 13 -10 13 -10 0 0 -12 -2 -13 -9 -1 -7 11 -9 11 -14 0 -4 -10 -6 -9
-6 4 -1 13 7 17 34 17 19 0 35 -5 35 -11z m60 -6 c0 -15 -2 -16 -10 -3 -5 8
-10 10 -10 4 0 -6 -6 -11 -13 -11 -8 0 -14 6 -14 14 0 7 11 13 24 13 15 0 23
-6 23 -17z m58 0 c-4 -22 -22 -20 -26 1 -2 10 3 16 13 16 10 0 15 -7 13 -17z
m42 0 c0 -14 -2 -15 -9 -4 -7 11 -9 11 -14 0 -4 -10 -6 -9 -6 4 -1 9 6 17 14
17 8 0 15 -8 15 -17z m-585 -5 c5 4 5 1 1 -6 -6 -10 -11 -10 -22 -1 -8 6 -14
14 -14 16 0 3 6 0 13 -6 8 -6 18 -7 22 -3z"/>
</g>
</svg>
